# xmcd
#
# Track frame offsets:
#	150
#	12197
#	26042
#	39697
#	52143
#	66835
#	80282
#	90172
#	104724
#	114262
#	123676
#	132582
#	152183
#	165799
#	178200
#	191224
#	203566
#	215001
#	227267
#	240861
#
# Disc length: 3388 seconds
#
# Revision: 0
# Processed by: cddbd v1.5.2PL0 Copyright (c) Steve Scherf et al.
# Submitted via: EasyCDDAExtractor 16.0.1.1
#
DISCID=0d0d3a14
DTITLE=Boxcar Willie - BoxCar Sings Hank Williams and Jimmy Rodgers-76+Daddy Was
DTITLE=A Railroad Man-77
DYEAR=1900
DGENRE=Country
TTITLE0=Pan American
TTITLE1=Lonesome Whistle
TTITLE2=Ramblin' Man
TTITLE3=I Can't Help It
TTITLE4=I'm So Lonesome I Could Cry
TTITLE5=T  For Texas
TTITLE6=Waitin' Fot A Train
TTITLE7=Hobo's Meditation
TTITLE8=Hobo's Last Ride
TTITLE9=T B Blues
TTITLE10=My Daddy Was A Railroad Man
TTITLE11=Papa's Old Pocket Watch
TTITLE12=I Love The Sound Of A Whistle
TTITLE13=Hot Box Blues
TTITLE14=Rusty Guitar Strings
TTITLE15=I'm Gettin' Out While I'm Still Country
TTITLE16=The Day Elvis Died
TTITLE17=Country Music Nightmare
TTITLE18=I'm Going Back To Texas
TTITLE19=She Just Won't Stop Loving Me
EXTD=
EXTT0=
EXTT1=
EXTT2=
EXTT3=
EXTT4=
EXTT5=
EXTT6=
EXTT7=
EXTT8=
EXTT9=
EXTT10=
EXTT11=
EXTT12=
EXTT13=
EXTT14=
EXTT15=
EXTT16=
EXTT17=
EXTT18=
EXTT19=
PLAYORDER=
